<svg id="Layer_1" data-name="Layer 1" xmlns="http://www.w3.org/2000/svg" xmlns:xlink="http://www.w3.org/1999/xlink" viewBox="0 0 406 406"><defs><style>.cls-1{fill:none;}.cls-2{fill:#002332;}.cls-3{clip-path:url(#clip-path);}.cls-4{fill:#0ab682;}</style><clipPath id="clip-path"><rect class="cls-1" x="431.73" y="1728.32" width="1214.15" height="699.4"/></clipPath></defs><path class="cls-2" d="M391.89,288.36a40.12,40.12,0,1,0-55.71-57.74,40.12,40.12,0,0,0,55.71,57.74Z"/><path class="cls-2" d="M118.25,392A40.12,40.12,0,1,0,176,336.25,40.12,40.12,0,0,0,118.25,392Z"/><path class="cls-2" d="M15.14,116.3A40.12,40.12,0,1,0,70.86,174,40.12,40.12,0,0,0,15.14,116.3Z"/><path class="cls-2" d="M290.43,14.33A40.12,40.12,0,1,0,232.69,70a40.12,40.12,0,0,0,57.74-55.71Z"/><path class="cls-2" d="M376.39,138.16a38.2,38.2,0,0,0,11-29v-.3c-1.81-33-41.8-48.28-65.16-24.93l-37.8,38.48c-12.1,12.1-40.07,14-54.44-.42l-90.43-91.5a38.16,38.16,0,0,0-27.45-11.61c-34,0-51.06,41.16-27,65.22l38.12,36.8c13.87,15.09,12.36,41.67,0,54L31.67,266.68a38.23,38.23,0,0,0-11.19,26.56v.86c-.4,34.25,41,51.69,65.22,27.46l38.06-38.23c13.25-13.25,40.8-13.39,54.67.48l90,90.57a38.21,38.21,0,0,0,28.15,11.18h.12c33.48-1,49.57-41.52,25.89-65.2L286.24,283.6c-13.49-13.49-14.5-39.53-.09-53.94ZM233.66,232.7A42.18,42.18,0,0,1,175.09,172a42.18,42.18,0,1,1,58.57,60.7Z"/><g class="cls-3"><path class="cls-4" d="M1200.89,1575.55c-115,109.21-298.43,105-408-9.27-107.86-112.54-104.12-295,8.28-403.57,114.67-110.79,295.46-107.61,407,7.14,111.15,114.33,107.87,296.3-7.32,405.7m974.22-643a259.37,259.37,0,0,0,75.36-197.37l-.11-2C2238,508.74,1965.08,404.69,1805.62,563.54l-258,261.74c-82.61,82.32-273.5,94.85-371.58-2.9L558.86,200a261.24,261.24,0,0,0-187.34-79C139.26,121.15,23,401,187.25,564.68L447.42,815c94.63,102.66,84.34,283.47,0,367.51l-625.15,624.2a259.48,259.48,0,0,0-76.36,180.7l-.06,5.82C-256.91,2226.19,25.66,2344.8,191,2180L450.76,1920c90.41-90.1,278.45-91.09,373.16,3.29l614.55,616.06a261.21,261.21,0,0,0,192.09,76l.85,0c228.52-6.73,338.34-282.41,176.68-443.52l-248.27-250c-92.07-91.74-99-268.86-.63-366.89Z"/></g></svg>