<svg id="Layer_1" data-name="Layer 1" xmlns="http://www.w3.org/2000/svg" xmlns:xlink="http://www.w3.org/1999/xlink" viewBox="0 0 406 406"><defs><style>.cls-1{fill:none;}.cls-2{clip-path:url(#clip-path);}.cls-3{fill:#0ab682;}</style><clipPath id="clip-path"><rect class="cls-1" x="-63.93" y="1728.32" width="1214.15" height="699.4"/></clipPath></defs><path d="M391.89,288.36a40.12,40.12,0,1,0-55.71-57.74,40.12,40.12,0,0,0,55.71,57.74Z"/><path d="M118.25,392A40.12,40.12,0,1,0,176,336.25,40.12,40.12,0,0,0,118.25,392Z"/><path d="M15.14,116.3A40.12,40.12,0,1,0,70.86,174,40.12,40.12,0,0,0,15.14,116.3Z"/><path d="M290.43,14.33A40.12,40.12,0,1,0,232.69,70a40.12,40.12,0,0,0,57.74-55.71Z"/><path d="M376.39,138.16a38.2,38.2,0,0,0,11-29v-.3c-1.81-33-41.8-48.28-65.16-24.93l-37.8,38.48c-12.1,12.1-40.07,14-54.44-.42l-90.43-91.5a38.16,38.16,0,0,0-27.45-11.61c-34,0-51.06,41.16-27,65.22l38.12,36.8c13.87,15.09,12.36,41.67,0,54L31.67,266.68a38.23,38.23,0,0,0-11.19,26.56v.86c-.4,34.25,41,51.69,65.22,27.46l38.06-38.23c13.25-13.25,40.8-13.39,54.67.48l90,90.57a38.21,38.21,0,0,0,28.15,11.18h.12c33.48-1,49.57-41.52,25.89-65.2L286.24,283.6c-13.49-13.49-14.5-39.53-.09-53.94ZM233.66,232.7A42.18,42.18,0,0,1,175.09,172a42.18,42.18,0,1,1,58.57,60.7Z"/><g class="cls-2"><path class="cls-3" d="M705.24,1575.55c-115,109.21-298.44,105-408-9.27-107.86-112.54-104.12-295,8.28-403.57,114.66-110.79,295.45-107.61,407,7.14,111.16,114.33,107.88,296.3-7.31,405.7m974.22-643a259.36,259.36,0,0,0,75.35-197.37l-.1-2C1742.35,508.74,1469.42,404.69,1310,563.54L1052,825.28c-82.62,82.32-273.5,94.85-371.59-2.9L63.21,200a261.26,261.26,0,0,0-187.35-79c-232.26.1-348.5,280-184.27,443.63L-48.23,815c94.62,102.66,84.34,283.47,0,367.51l-625.15,624.2a259.44,259.44,0,0,0-76.36,180.7l-.07,5.82c-2.76,233,279.81,351.59,445.15,186.83L-44.89,1920c90.4-90.1,278.44-91.09,373.15,3.29l614.55,616.06a261.25,261.25,0,0,0,192.1,76l.84,0c228.52-6.73,338.34-282.41,176.69-443.52l-248.28-250c-92.06-91.74-99-268.86-.63-366.89Z"/></g></svg>