<svg id="Layer_1" data-name="Layer 1" xmlns="http://www.w3.org/2000/svg" viewBox="0 0 1283.52 414"><defs><style>.cls-1{fill:#002333;}.cls-2{fill:#0ab682;}</style></defs><path class="cls-1" d="M524,60.82v115.4H486.37V-.73H525.1l82,111.16V-.73h37.67v177H608.4Z"/><path class="cls-1" d="M737.07,44.9c38.2,0,64.2,28.65,64.2,70.57v7.42H706c2.12,16.19,15.12,29.72,36.87,29.72,11.94,0,26-4.78,34.22-12.74L792,161.63c-12.73,11.67-32.89,17.77-52.79,17.77-39,0-68.44-26.26-68.44-67.38C670.75,74.88,698.07,44.9,737.07,44.9ZM705.5,100.08h63.14c-.8-12.2-9.29-28.39-31.57-28.39C716.11,71.69,707.09,87.35,705.5,100.08Z"/><path class="cls-1" d="M878,133l-29.45,43.25H811.17l45.37-65.79L813.83,48.08H851.5L878,87.61l26.26-39.53H942l-43,62.35,45.9,65.79H907.21Z"/><path class="cls-1" d="M1048.08,160c-8.76,9.82-24.14,19.37-45.1,19.37-28.12,0-41.38-15.39-41.38-40.32v-91h33.69v77.73c0,17.78,9.28,23.61,23.61,23.61,13,0,23.34-7.16,29.18-14.59V48.08h33.69V176.22h-33.69Z"/><path class="cls-1" d="M1118.65,135.89c9.28,8.76,28.38,17.51,44.3,17.51,14.59,0,21.49-5.84,21.49-13.79,0-8.76-11.67-11.15-25.73-13.8-22-4.24-50.41-9.81-50.41-40.59,0-21.48,18.84-40.32,52.53-40.32,21.75,0,39,7.43,51.73,17.51L1199,85.49c-7.69-8.23-22.28-14.86-37.94-14.86-12.2,0-20.16,5.57-20.16,12.74,0,7.42,10.08,9.55,24.41,12.47,22,4.24,51.46,10.34,51.46,42.44,0,23.35-19.89,41.12-55.44,41.12-22.28,0-43.77-7.43-57.3-19.9Z"/><path class="cls-1" d="M631.63,284.8,584.55,410.56H569L521.93,284.8V410.56H486.37V237.61h49.84l40.57,101.86,40.57-101.86h50.1v173H631.63Z"/><path class="cls-1" d="M785.62,394.38c-8.76,9.81-24.14,19.36-45.1,19.36-28.12,0-41.39-15.38-41.39-40.32v-91h33.7v77.72c0,17.78,9.28,23.62,23.61,23.62,13,0,23.34-7.17,29.18-14.59V282.43h33.69V410.56H785.62Z"/><path class="cls-1" d="M861.58,378.73V311.87H840.36V282.43h21.22v-35h34v35h26v29.44h-26v57.84c0,8,4.24,14.06,11.67,14.06,5,0,9.82-1.86,11.67-3.72l7.17,25.47c-5,4.51-14.06,8.22-28.12,8.22C874.31,413.74,861.58,401.54,861.58,378.73Z"/><path class="cls-1" d="M1031.1,394.38c-8.75,9.81-24.14,19.36-45.1,19.36-28.12,0-41.38-15.38-41.38-40.32v-91h33.69v77.72c0,17.78,9.28,23.62,23.61,23.62,13,0,23.34-7.17,29.18-14.59V282.43h33.69V410.56H1031.1Z"/><path class="cls-1" d="M1175.15,397.3c-8.75,10.34-23.87,16.44-40.58,16.44-20.43,0-44.57-13.79-44.57-42.44,0-30,24.14-40.86,44.57-40.86,17,0,32.1,5.31,40.58,15.66V328.32c0-13-11.14-21.49-28.11-21.49-13.8,0-26.53,5-37.41,15.12l-12.73-22.54c15.65-13.8,35.81-20.16,56-20.16,29.18,0,56,11.67,56,48.54v82.77h-33.7Zm0-33.43c-5.57-7.43-16.18-11.14-27.05-11.14-13.27,0-24.14,6.9-24.14,19.36,0,11.94,10.87,18.84,24.14,18.84,10.87,0,21.48-3.71,27.05-11.14Z"/><path class="cls-1" d="M1242.28,233.62H1276V410.56h-33.69Z"/><path class="cls-2" d="M398.63,290.66a41,41,0,1,0-56.89-59,41,41,0,0,0,56.89,59Z"/><path class="cls-2" d="M119.21,396.46a41,41,0,1,0,59-56.89,41,41,0,0,0-59,56.89Z"/><path class="cls-2" d="M13.92,115a41,41,0,1,0,56.89,59,41,41,0,0,0-56.89-59Z"/><path class="cls-2" d="M295,10.84a41,41,0,1,0-59,56.88,41,41,0,0,0,59-56.88Z"/><path class="cls-2" d="M382.81,137.29a39,39,0,0,0,11.27-29.63v-.31c-1.85-33.68-42.69-49.3-66.54-25.46l-38.6,39.3c-12.35,12.36-40.91,14.24-55.59-.44L141,27.32a39.05,39.05,0,0,0-28-11.86c-34.75,0-52.14,42-27.57,66.6l38.93,37.58c14.16,15.41,12.62,42.56,0,55.17L30.8,268.52a39,39,0,0,0-11.42,27.13v.87C19,331.5,61.23,349.3,86,324.57l38.87-39.05c13.52-13.52,41.66-13.67,55.83.5l91.94,92.49a39,39,0,0,0,28.74,11.41h.12c34.19-1,50.62-42.4,26.44-66.58L290.75,285.8c-13.77-13.77-14.81-40.36-.09-55.08ZM237.05,233.82a43.06,43.06,0,0,1-59.8-62,43.06,43.06,0,1,1,59.8,62Z"/></svg>