<svg id="Layer_1" data-name="Layer 1" xmlns="http://www.w3.org/2000/svg" viewBox="0 0 1282.07 414"><path d="M526,61.91V177.3H488.3V.36H527l82,111.15V.36h37.67V177.3H610.33Z"/><path d="M739,46c38.2,0,64.2,28.65,64.2,70.56V124H708c2.12,16.18,15.12,29.71,36.88,29.71,11.93,0,26-4.77,34.22-12.73l14.85,21.75c-12.73,11.68-32.89,17.78-52.79,17.78-39,0-68.44-26.26-68.44-67.38C672.68,76,700,46,739,46Zm-31.57,55.18h63.14C769.77,89,761.28,72.78,739,72.78,718,72.78,709,88.44,707.43,101.17Z"/><path d="M880,134.06,850.51,177.3h-37.4l45.36-65.79L815.76,49.17h37.67L880,88.7l26.26-39.53h37.67l-43,62.34,45.89,65.79H909.14Z"/><path d="M1050,161.12c-8.75,9.82-24.14,19.37-45.1,19.37-28.12,0-41.38-15.39-41.38-40.33v-91h33.69V126.9c0,17.77,9.28,23.61,23.61,23.61,13,0,23.34-7.16,29.18-14.59V49.17h33.69V177.3H1050Z"/><path d="M1120.58,137c9.29,8.76,28.39,17.51,44.3,17.51,14.59,0,21.49-5.84,21.49-13.79,0-8.76-11.67-11.15-25.73-13.8-22-4.25-50.4-9.82-50.4-40.59,0-21.49,18.83-40.32,52.52-40.32,21.75,0,39,7.43,51.73,17.51L1201,86.58c-7.69-8.23-22.28-14.86-37.93-14.86-12.21,0-20.17,5.57-20.17,12.73,0,7.43,10.09,9.56,24.41,12.47,22,4.25,51.47,10.35,51.47,42.45,0,23.34-19.9,41.12-55.45,41.12-22.28,0-43.77-7.43-57.3-19.9Z"/><path d="M633.56,285.89,586.48,411.65H571L523.87,285.89V411.65H488.3v-173h49.84l40.57,101.87,40.58-101.87h50.09v173H633.56Z"/><path d="M787.55,395.47c-8.75,9.81-24.14,19.36-45.1,19.36-28.12,0-41.38-15.39-41.38-40.32v-91h33.69v77.72c0,17.78,9.28,23.61,23.61,23.61,13,0,23.34-7.16,29.18-14.59V283.52h33.69V411.65H787.55Z"/><path d="M863.51,379.81V313H842.29V283.52h21.22v-35h34v35h26V313h-26v57.83c0,8,4.25,14.06,11.67,14.06,5,0,9.82-1.85,11.68-3.71L928,406.61c-5,4.51-14.06,8.22-28.12,8.22C876.25,414.83,863.51,402.63,863.51,379.81Z"/><path d="M1033,395.47c-8.75,9.81-24.14,19.36-45.09,19.36-28.12,0-41.39-15.39-41.39-40.32v-91h33.69v77.72c0,17.78,9.29,23.61,23.61,23.61,13,0,23.35-7.16,29.18-14.59V283.52h33.7V411.65H1033Z"/><path d="M1177.09,398.38c-8.76,10.35-23.88,16.45-40.59,16.45-20.43,0-44.57-13.79-44.57-42.44,0-30,24.14-40.86,44.57-40.86,17,0,32.1,5.31,40.59,15.65V329.41c0-13-11.14-21.49-28.12-21.49-13.8,0-26.53,5-37.41,15.12l-12.73-22.55c15.65-13.79,35.81-20.16,56-20.16,29.19,0,56,11.67,56,48.55v82.77h-33.69Zm0-33.42c-5.57-7.43-16.18-11.14-27.06-11.14-13.27,0-24.14,6.89-24.14,19.36,0,11.94,10.87,18.84,24.14,18.84,10.88,0,21.49-3.72,27.06-11.15Z"/><path d="M1244.21,234.7h33.69v177h-33.69Z"/><path d="M400.57,291.75a41,41,0,1,0-56.89-59,41,41,0,0,0,56.89,59Z"/><path d="M121.14,397.54a41,41,0,1,0,59-56.89,41,41,0,0,0-59,56.89Z"/><path d="M15.86,116.05a41,41,0,1,0,56.89,59,41,41,0,0,0-56.89-59Z"/><path d="M297,11.92a41,41,0,1,0-59,56.89,41,41,0,0,0,59-56.89Z"/><path d="M384.74,138.37A39,39,0,0,0,396,108.74l0-.3C394.15,74.75,353.32,59.13,329.46,83l-38.59,39.29c-12.36,12.36-40.92,14.24-55.59-.43L142.93,28.41a39,39,0,0,0-28-11.86c-34.75,0-52.14,42-27.57,66.6l38.92,37.58c14.16,15.41,12.62,42.55,0,55.17L32.73,269.61a39,39,0,0,0-11.42,27.13v.87c-.41,35,41.86,52.78,66.6,28.05l38.86-39.05c13.53-13.52,41.66-13.67,55.83.5l91.94,92.48A39,39,0,0,0,303.27,391h.13c34.19-1,50.62-42.4,26.43-66.58l-37.14-37.53c-13.78-13.78-14.81-40.37-.1-55.08ZM239,234.91a43.06,43.06,0,0,1-59.8-62,43.06,43.06,0,1,1,59.8,62Z"/></svg>