<svg id="Layer_1" data-name="Layer 1" xmlns="http://www.w3.org/2000/svg" viewBox="0 0 1281.55 411.99"><defs><style>.cls-1{fill:#fff;}.cls-2{fill:#0ab682;}</style></defs><path class="cls-1" d="M520.54,60.54V174.93H483.2V-.46h38.39l81.26,110.18V-.46h37.34V174.93h-36Z"/><path class="cls-1" d="M731.7,44.77c37.87,0,63.64,28.39,63.64,69.94v7.37h-94.4c2.1,16,15,29.45,36.55,29.45,11.83,0,25.77-4.74,33.92-12.63l14.73,21.57c-12.63,11.57-32.61,17.61-52.33,17.61-38.66,0-67.85-26-67.85-66.79C666,74.48,693.05,44.77,731.7,44.77ZM700.41,99.46H763c-.78-12.1-9.2-28.14-31.29-28.14C710.93,71.32,702,86.84,700.41,99.46Z"/><path class="cls-1" d="M871.43,132.07l-29.19,42.86H805.16l45-65.21-42.34-61.8h37.34l26.3,39.18,26-39.18H934.8l-42.6,61.8,45.49,65.21H900.35Z"/><path class="cls-1" d="M1040,158.89c-8.68,9.73-23.93,19.19-44.71,19.19-27.87,0-41-15.25-41-40V47.92h33.4V125c0,17.62,9.2,23.4,23.4,23.4,12.89,0,23.14-7.1,28.93-14.46v-86h33.39v127H1040Z"/><path class="cls-1" d="M1109.94,135c9.2,8.68,28.13,17.35,43.91,17.35,14.46,0,21.3-5.78,21.3-13.67,0-8.68-11.57-11-25.51-13.67-21.82-4.21-50-9.73-50-40.23,0-21.3,18.67-40,52.07-40,21.56,0,38.65,7.36,51.27,17.35L1189.61,85c-7.62-8.15-22.08-14.73-37.6-14.73-12.1,0-20,5.52-20,12.62,0,7.37,10,9.47,24.19,12.36,21.82,4.21,51,10.26,51,42.08,0,23.14-19.72,40.75-55,40.75-22.08,0-43.38-7.36-56.8-19.72Z"/><path class="cls-1" d="M627.19,282.56,580.52,407.22H565.13L518.46,282.56V407.22H483.2V235.78h49.41l40.21,101,40.22-101h49.65V407.22h-35.5Z"/><path class="cls-1" d="M779.83,391.18c-8.68,9.73-23.93,19.19-44.71,19.19-27.87,0-41-15.25-41-40V280.21h33.4v77.05c0,17.61,9.2,23.4,23.4,23.4,12.89,0,23.14-7.1,28.93-14.46v-86h33.39v127H779.83Z"/><path class="cls-1" d="M855.13,375.66V309.4h-21V280.21h21V245.5h33.65v34.71h25.77V309.4H888.78v57.32c0,7.89,4.21,13.94,11.57,13.94,5,0,9.73-1.84,11.57-3.68l7.1,25.24c-5,4.47-13.93,8.15-27.87,8.15C867.75,410.37,855.13,398.28,855.13,375.66Z"/><path class="cls-1" d="M1023.16,391.18c-8.68,9.73-23.93,19.19-44.7,19.19-27.88,0-41-15.25-41-40V280.21h33.4v77.05c0,17.61,9.2,23.4,23.4,23.4,12.89,0,23.14-7.1,28.93-14.46v-86h33.39v127h-33.39Z"/><path class="cls-1" d="M1166,394.07c-8.68,10.26-23.67,16.3-40.23,16.3-20.25,0-44.18-13.67-44.18-42.07,0-29.71,23.93-40.5,44.18-40.5,16.83,0,31.81,5.26,40.23,15.52V325.7c0-12.88-11-21.3-27.87-21.3-13.68,0-26.3,5-37.08,15L1088.38,297c15.51-13.67,35.5-20,55.48-20,28.93,0,55.48,11.56,55.48,48.12v82H1166Zm0-33.13c-5.52-7.37-16-11.05-26.82-11.05-13.15,0-23.93,6.84-23.93,19.2,0,11.83,10.78,18.67,23.93,18.67,10.78,0,21.3-3.68,26.82-11.05Z"/><path class="cls-1" d="M1232.48,231.83h33.4V407.22h-33.4Z"/><path class="cls-2" d="M396.24,288.37a40.61,40.61,0,1,0-56.39-58.44,40.61,40.61,0,0,0,56.39,58.44Z"/><path class="cls-2" d="M119.27,393.24a40.61,40.61,0,1,0,58.44-56.39,40.61,40.61,0,0,0-58.44,56.39Z"/><path class="cls-2" d="M14.9,114.22a40.61,40.61,0,1,0,56.39,58.44A40.61,40.61,0,0,0,14.9,114.22Z"/><path class="cls-2" d="M293.54,11A40.61,40.61,0,1,0,235.1,67.39,40.61,40.61,0,0,0,293.54,11Z"/><path class="cls-2" d="M380.55,136.34A38.69,38.69,0,0,0,391.73,107l0-.3c-1.83-33.39-42.31-48.87-65.95-25.24L287.5,120.38c-12.25,12.25-40.56,14.12-55.1-.43L140.86,27.34a38.62,38.62,0,0,0-27.78-11.75c-34.44,0-51.68,41.66-27.33,66l38.59,37.25c14,15.28,12.51,42.18,0,54.69L31.63,266.43a38.67,38.67,0,0,0-11.32,26.88v.87c-.41,34.67,41.49,52.32,66,27.8l38.52-38.7c13.41-13.41,41.3-13.55,55.34.49l91.14,91.68a38.7,38.7,0,0,0,28.49,11.31h.12c33.89-1,50.18-42,26.2-66l-36.82-37.2c-13.65-13.65-14.68-40-.09-54.6ZM236.08,232A42.68,42.68,0,0,1,176.8,170.6,42.68,42.68,0,1,1,236.08,232Z"/></svg>