<svg id="Layer_1" data-name="Layer 1" xmlns="http://www.w3.org/2000/svg" viewBox="0 0 1220.35 320.95"><defs><style>.cls-1{fill:#fff;}</style></defs><path class="cls-1" d="M422.69,129.84V263H379.21V58.8h44.71l94.62,128.3V58.8H562V263H520.07Z"/><path class="cls-1" d="M668.59,111.47c44.09,0,74.1,33.07,74.1,81.45v8.57H632.76c2.45,18.68,17.45,34.3,42.56,34.3,13.78,0,30-5.51,39.5-14.7L732,246.2c-14.7,13.48-38,20.52-60.94,20.52-45,0-79-30.32-79-77.78C592,146.07,623.57,111.47,668.59,111.47Zm-36.44,63.69H705c-.91-14.09-10.71-32.76-36.43-32.76C644.39,142.4,634,160.46,632.15,175.16Z"/><path class="cls-1" d="M828.74,213.13l-34,49.91H751.57l52.36-75.94-49.29-72h43.48l30.62,45.63,30.31-45.63h43.49l-49.61,72,53,75.94H862.42Z"/><path class="cls-1" d="M1025,244.36c-10.1,11.33-27.86,22.36-52,22.36-32.46,0-47.77-17.76-47.77-46.55v-105h38.89v89.72c0,20.52,10.72,27.26,27.25,27.26,15,0,26.95-8.27,33.68-16.85V115.14h38.89V263H1025Z"/><path class="cls-1" d="M1106.48,216.5c10.72,10.1,32.77,20.21,51.14,20.21,16.84,0,24.8-6.74,24.8-15.92,0-10.11-13.47-12.87-29.7-15.93-25.42-4.9-58.18-11.33-58.18-46.85,0-24.8,21.74-46.54,60.63-46.54,25.11,0,45,8.57,59.71,20.21l-15.62,26.64c-8.88-9.49-25.72-17.15-43.79-17.15-14.08,0-23.27,6.43-23.27,14.7,0,8.57,11.64,11,28.17,14.39,25.42,4.9,59.41,11.94,59.41,49,0,26.95-23,47.47-64,47.47-25.72,0-50.52-8.58-66.14-23Z"/><path class="cls-1" d="M308.54,228.33a31.66,31.66,0,1,0-44-45.56,31.66,31.66,0,0,0,44,45.56Z"/><path class="cls-1" d="M92.63,310.08a31.66,31.66,0,1,0,45.56-44,31.66,31.66,0,0,0-45.56,44Z"/><path class="cls-1" d="M11.28,92.57a31.66,31.66,0,1,0,44,45.56,31.66,31.66,0,0,0-44-45.56Z"/><path class="cls-1" d="M228.49,12.11a31.66,31.66,0,1,0-45.56,44,31.66,31.66,0,0,0,45.56-44Z"/><path class="cls-1" d="M296.31,109.82A30.18,30.18,0,0,0,305,86.92l0-.24c-1.43-26-33-38.09-51.41-19.67L223.78,97.38c-9.55,9.55-31.62,11-43-.34L109.47,24.85a30.17,30.17,0,0,0-21.66-9.17C61,15.7,47.52,48.16,66.51,67.15l30.08,29c10.94,11.91,9.75,32.89,0,42.63L24.32,211.22a30.13,30.13,0,0,0-8.83,21v.68c-.32,27,32.35,40.78,51.46,21.67l30-30.17c10.45-10.45,32.19-10.56,43.14.38l71,71.47a30.16,30.16,0,0,0,22.2,8.82h.1c26.42-.78,39.11-32.76,20.43-51.45l-28.71-29c-10.64-10.64-11.44-31.19-.07-42.56ZM183.69,184.41a33.27,33.27,0,1,1,.85-47.06A33.12,33.12,0,0,1,183.69,184.41Z"/></svg>