<svg id="Layer_1" data-name="Layer 1" xmlns="http://www.w3.org/2000/svg" xmlns:xlink="http://www.w3.org/1999/xlink" viewBox="0 0 406 406"><defs><style>.cls-1{fill:none;}.cls-2{fill:#fff;}.cls-3{clip-path:url(#clip-path);}.cls-4{fill:#0ab682;}</style><clipPath id="clip-path"><rect class="cls-1" x="912.73" y="1724.12" width="1214.15" height="699.4"/></clipPath></defs><path class="cls-2" d="M391.15,288.36a40.12,40.12,0,1,0-55.72-57.74,40.12,40.12,0,0,0,55.72,57.74Z"/><path class="cls-2" d="M117.51,392a40.12,40.12,0,1,0,57.74-55.71A40.12,40.12,0,0,0,117.51,392Z"/><path class="cls-2" d="M14.4,116.3A40.12,40.12,0,1,0,70.11,174,40.12,40.12,0,0,0,14.4,116.3Z"/><path class="cls-2" d="M289.68,14.33A40.11,40.11,0,1,0,232,70a40.11,40.11,0,0,0,57.73-55.71Z"/><path class="cls-2" d="M375.65,138.16a38.23,38.23,0,0,0,11-29l0-.3c-1.81-33-41.8-48.28-65.16-24.93l-37.79,38.48c-12.11,12.1-40.07,14-54.44-.42l-90.43-91.5A38.18,38.18,0,0,0,111.4,18.86c-34,0-51.06,41.16-27,65.22l38.12,36.8c13.86,15.09,12.36,41.67,0,54L30.93,266.68a38.19,38.19,0,0,0-11.19,26.56v.86c-.41,34.25,41,51.69,65.22,27.46L123,283.33c13.24-13.25,40.79-13.39,54.67.48l90,90.57a38.17,38.17,0,0,0,28.14,11.18H296c33.48-1,49.57-41.52,25.88-65.2L285.5,283.6c-13.49-13.49-14.51-39.53-.09-53.94ZM232.91,232.7A42.17,42.17,0,0,1,174.35,172a42.17,42.17,0,1,1,58.56,60.7Z"/><g class="cls-3"><path class="cls-4" d="M1681.89,1571.35c-115,109.21-298.43,105-408-9.27-107.86-112.54-104.12-295,8.28-403.57,114.67-110.79,295.46-107.61,407,7.14,111.15,114.33,107.87,296.3-7.32,405.7m974.22-643A259.37,259.37,0,0,0,2731.47,731l-.11-2.05C2719,504.54,2446.08,400.49,2286.62,559.34l-258,261.74c-82.61,82.32-273.5,94.85-371.58-2.9L1039.86,195.82a261.24,261.24,0,0,0-187.34-79c-232.26.1-348.51,280-184.27,443.63l260.17,250.3c94.63,102.66,84.34,283.47,0,367.51l-625.15,624.2a259.48,259.48,0,0,0-76.36,180.7l-.06,5.82c-2.76,233,279.81,351.58,445.14,186.83l259.77-260.08c90.41-90.1,278.45-91.09,373.16,3.29l614.55,616.06a261.21,261.21,0,0,0,192.09,76l.85,0c228.52-6.73,338.34-282.41,176.68-443.52l-248.27-250c-92.07-91.74-99-268.86-.63-366.89Z"/></g></svg>