<svg id="Layer_1" data-name="Layer 1" xmlns="http://www.w3.org/2000/svg" xmlns:xlink="http://www.w3.org/1999/xlink" viewBox="0 0 406 406"><defs><style>.cls-1{fill:none;}.cls-2{fill:#09b781;}.cls-3{fill:#002333;}.cls-4{clip-path:url(#clip-path);}.cls-5{fill:#0ab682;}</style><clipPath id="clip-path"><rect class="cls-1" x="4.34" y="2045.08" width="1210.12" height="698.52"/></clipPath></defs><circle class="cls-2" cx="203.62" cy="203.75" r="201.5"/><path class="cls-3" d="M349.82,269.89a31.14,31.14,0,1,0-43.24-44.82,31.14,31.14,0,0,0,43.24,44.82Z"/><path class="cls-3" d="M137.44,350.29a31.14,31.14,0,1,0,44.81-43.24,31.14,31.14,0,0,0-44.81,43.24Z"/><path class="cls-3" d="M57.42,136.35a31.14,31.14,0,1,0,43.24,44.81,31.14,31.14,0,0,0-43.24-44.81Z"/><path class="cls-3" d="M271.07,57.2a31.14,31.14,0,1,0-1,44.14A31.33,31.33,0,0,0,271.07,57.2Z"/><path class="cls-3" d="M337.79,153.31a29.66,29.66,0,0,0,8.57-22.52l0-.23c-1.4-25.6-32.44-37.47-50.57-19.35l-29.33,29.86c-9.39,9.4-31.1,10.83-42.25-.33L154,69.73a29.67,29.67,0,0,0-21.3-9c-26.41,0-39.63,32-20.95,50.62l29.58,28.56c10.76,11.71,9.59,32.35,0,41.93L70.24,253.06a29.65,29.65,0,0,0-8.68,20.62v.66c-.31,26.58,31.82,40.12,50.62,21.32L141.71,266c10.28-10.28,31.66-10.39,42.43.38L254,336.65a29.65,29.65,0,0,0,21.85,8.67H276c26-.77,38.47-32.22,20.09-50.61l-28.23-28.52c-10.47-10.47-11.26-30.68-.07-41.86ZM227,226.68a32.73,32.73,0,0,1-45.45-47.1A32.73,32.73,0,1,1,227,226.68Z"/><g class="cls-4"><path class="cls-5" d="M1633.93,1843.6c-122.08,116.19-316.84,111.75-433.16-9.86-114.51-119.73-110.54-313.81,8.79-429.34,121.73-117.85,313.68-114.47,432.13,7.61,118,121.62,114.53,315.21-7.76,431.59m1034.29-684.08a276.27,276.27,0,0,0,80-210l-.12-2.18C2735,708.68,2445.24,598,2275.94,767l-273.86,278.44c-87.71,87.59-290.36,100.91-394.5-3.08L952.31,380.26a277.06,277.06,0,0,0-198.9-84c-246.58.12-370,297.84-195.63,472L834,1034.47c100.46,109.22,89.54,301.58,0,391L170.3,2089.51a276.31,276.31,0,0,0-81.07,192.23l-.07,6.19c-2.93,247.86,297.07,374,472.59,198.75L837.55,2210c96-95.85,295.6-96.91,396.16,3.51l652.44,655.38a277,277,0,0,0,203.94,80.86l.9,0c242.61-7.16,359.21-300.45,187.58-471.84l-263.59-266c-97.74-97.6-105.1-286-.66-390.31Z"/></g></svg>