<svg id="Layer_1" data-name="Layer 1" xmlns="http://www.w3.org/2000/svg" xmlns:xlink="http://www.w3.org/1999/xlink" viewBox="0 0 406 406"><defs><style>.cls-1{fill:none;}.cls-2{fill:#002332;}.cls-3{clip-path:url(#clip-path);}.cls-4{fill:#0ab682;}.cls-5{clip-path:url(#clip-path-2);}</style><clipPath id="clip-path"><rect class="cls-1" x="-961.66" y="2045.08" width="1210.12" height="698.52"/></clipPath><clipPath id="clip-path-2"><rect class="cls-1" x="427.8" y="1186.74" width="1214.15" height="699.4"/></clipPath></defs><path class="cls-2" d="M180.66,178.58a32.73,32.73,0,0,0,45.45,47.1,32.73,32.73,0,1,0-45.45-47.1Z"/><path class="cls-2" d="M202.72,1.25C91.44,1.25,1.22,91.46,1.22,202.75s90.22,201.5,201.5,201.5,201.5-90.22,201.5-201.5S314,1.25,202.72,1.25Zm23.42,54.16a31,31,0,0,1,44,.79,31.14,31.14,0,0,1-44.82,43.24A31,31,0,0,1,226.14,55.41Zm-170.41,124a31,31,0,0,1,.79-44,31.14,31.14,0,0,1,43.24,44.81A31,31,0,0,1,55.73,179.38Zm124.85,170.7a31,31,0,0,1-44-.79,31.14,31.14,0,0,1,44.81-43.24A31,31,0,0,1,180.58,350.08Zm94.49-5.76H275a29.65,29.65,0,0,1-21.84-8.67l-69.88-70.29c-10.77-10.77-32.15-10.66-42.43-.38l-29.54,29.68c-18.8,18.8-50.93,5.26-50.62-21.32v-.66a29.65,29.65,0,0,1,8.68-20.62l71.09-71.23c9.59-9.58,10.76-30.22,0-41.93l-29.59-28.56c-18.67-18.67-5.45-50.61,21-50.62a29.69,29.69,0,0,1,21.3,9l70.18,71c11.16,11.16,32.86,9.73,42.26.33l29.33-29.86C313,92.09,344.05,104,345.45,129.56v.23a29.63,29.63,0,0,1-8.57,22.52l-70,71c-11.19,11.18-10.4,31.39.07,41.86l28.23,28.52C313.54,312.1,301.05,343.55,275.07,344.32Zm29.72-76.44a31.33,31.33,0,0,1,.89-43.81,31.14,31.14,0,1,1,43.24,44.82A31.31,31.31,0,0,1,304.79,267.88Z"/><g class="cls-3"><path class="cls-4" d="M667.93,1843.6c-122.08,116.19-316.84,111.75-433.16-9.86C120.26,1714,124.23,1519.93,243.56,1404.4c121.73-117.85,313.68-114.47,432.13,7.61,118,121.62,114.53,315.21-7.76,431.59m1034.29-684.08a276.27,276.27,0,0,0,80-210l-.12-2.18C1769,708.68,1479.24,598,1309.94,767l-273.86,278.44c-87.71,87.59-290.36,100.91-394.5-3.08L-13.69,380.26a277.06,277.06,0,0,0-198.9-84c-246.58.12-370,297.84-195.63,472L-132,1034.47c100.46,109.22,89.54,301.58,0,391l-663.7,664.06a276.31,276.31,0,0,0-81.07,192.23l-.07,6.19c-2.93,247.86,297.07,374,472.59,198.75L-128.45,2210c96-95.85,295.6-96.91,396.16,3.51l652.44,655.38a277,277,0,0,0,203.94,80.86l.9,0c242.61-7.16,359.21-300.45,187.58-471.84l-263.59-266c-97.74-97.6-105.1-286-.66-390.31Z"/></g><g class="cls-5"><path class="cls-4" d="M1197,1034c-115,109.21-298.43,105-408-9.27-107.86-112.55-104.12-295,8.27-403.57,114.67-110.79,295.46-107.61,407,7.14,111.16,114.33,107.88,296.3-7.32,405.7m974.22-643a259.38,259.38,0,0,0,75.36-197.38l-.11-2.05C2234.08-32.84,1961.15-136.89,1801.69,22l-258,261.73c-82.62,82.33-273.5,94.85-371.59-2.89L554.93-341.56a261.23,261.23,0,0,0-187.34-79c-232.26.11-348.51,280-184.27,443.64L443.5,273.4c94.62,102.66,84.33,283.47,0,367.51l-625.16,624.2A259.52,259.52,0,0,0-258,1445.8l-.06,5.83c-2.76,233,279.81,351.58,445.14,186.82l259.78-260.08c90.4-90.09,278.44-91.09,373.15,3.3l614.55,616.06a261.23,261.23,0,0,0,192.1,76l.84,0c228.52-6.73,338.34-282.42,176.68-443.52l-248.27-250c-92.06-91.74-99-268.86-.63-366.89Z"/></g></svg>