<svg id="Layer_1" data-name="Layer 1" xmlns="http://www.w3.org/2000/svg" xmlns:xlink="http://www.w3.org/1999/xlink" viewBox="0 0 406 406"><defs><style>.cls-1{fill:none;}.cls-2{clip-path:url(#clip-path);}.cls-3{fill:#0ab682;}.cls-4{clip-path:url(#clip-path-2);}</style><clipPath id="clip-path"><rect class="cls-1" x="-1457.32" y="2045.08" width="1210.12" height="698.52"/></clipPath><clipPath id="clip-path-2"><rect class="cls-1" x="-67.85" y="1186.74" width="1214.15" height="699.4"/></clipPath></defs><path d="M180.66,178.58a32.73,32.73,0,0,0,45.45,47.1,32.73,32.73,0,1,0-45.45-47.1Z"/><path d="M202.72,1.25C91.44,1.25,1.22,91.46,1.22,202.75s90.22,201.5,201.5,201.5,201.5-90.22,201.5-201.5S314,1.25,202.72,1.25Zm23.42,54.16a31,31,0,0,1,44,.79,31.14,31.14,0,0,1-44.82,43.24A31,31,0,0,1,226.14,55.41Zm-170.41,124a31,31,0,0,1,.79-44,31.14,31.14,0,0,1,43.24,44.81A31,31,0,0,1,55.73,179.38Zm124.85,170.7a31,31,0,0,1-44-.79,31.14,31.14,0,0,1,44.81-43.24A31,31,0,0,1,180.58,350.08Zm94.49-5.76H275a29.65,29.65,0,0,1-21.84-8.67l-69.88-70.29c-10.77-10.77-32.15-10.66-42.43-.38l-29.54,29.68c-18.8,18.8-50.93,5.26-50.62-21.32v-.66a29.65,29.65,0,0,1,8.68-20.62l71.09-71.23c9.59-9.58,10.76-30.22,0-41.93l-29.59-28.56c-18.67-18.67-5.45-50.61,21-50.62a29.69,29.69,0,0,1,21.3,9l70.18,71c11.16,11.16,32.86,9.73,42.26.33l29.33-29.86C313,92.09,344.05,104,345.45,129.56v.23a29.63,29.63,0,0,1-8.57,22.52l-70,71c-11.19,11.18-10.4,31.39.07,41.86l28.23,28.52C313.54,312.1,301.05,343.55,275.07,344.32Zm29.72-76.44a31.33,31.33,0,0,1,.89-43.81,31.14,31.14,0,1,1,43.24,44.82A31.31,31.31,0,0,1,304.79,267.88Z"/><g class="cls-2"><path class="cls-3" d="M172.28,1843.6c-122.08,116.19-316.84,111.75-433.16-9.86C-375.39,1714-371.42,1519.93-252.1,1404.4-130.36,1286.55,61.58,1289.93,180,1412c118,121.62,114.53,315.21-7.76,431.59m1034.28-684.08a276.23,276.23,0,0,0,80-210l-.12-2.18C1273.34,708.68,983.58,598,814.29,767L540.42,1045.42c-87.7,87.59-290.36,100.91-394.49-3.08L-509.35,380.26a277.05,277.05,0,0,0-198.89-84c-246.59.12-370,297.84-195.63,472l276.22,266.28c100.45,109.22,89.53,301.58,0,391l-663.7,664.06a276.26,276.26,0,0,0-81.07,192.23l-.08,6.19c-2.92,247.86,297.07,374,472.6,198.75L-624.11,2210c96-95.85,295.61-96.91,396.17,3.51L424.5,2868.89a277,277,0,0,0,203.94,80.86l.89,0c242.62-7.16,359.21-300.45,187.58-471.84l-263.58-266c-97.74-97.6-105.1-286-.66-390.31Z"/></g><g class="cls-4"><path class="cls-3" d="M701.31,1034c-115,109.21-298.43,105-408-9.27-107.86-112.55-104.12-295,8.28-403.57,114.67-110.79,295.46-107.61,407,7.14C819.78,742.6,816.5,924.57,701.31,1034m974.22-643a259.41,259.41,0,0,0,75.36-197.38l-.11-2.05C1738.42-32.84,1465.5-136.89,1306,22l-258,261.73c-82.61,82.33-273.5,94.85-371.59-2.89L59.28-341.56a261.25,261.25,0,0,0-187.34-79c-232.27.11-348.51,280-184.28,443.64L-52.16,273.4c94.63,102.66,84.34,283.47,0,367.51l-625.15,624.2a259.43,259.43,0,0,0-76.36,180.69l-.07,5.83c-2.76,233,279.82,351.58,445.15,186.82l259.77-260.08c90.41-90.09,278.44-91.09,373.16,3.3l614.54,616.06a261.25,261.25,0,0,0,192.1,76l.84,0c228.53-6.73,338.35-282.42,176.69-443.52l-248.28-250c-92.06-91.74-99-268.86-.62-366.89Z"/></g></svg>