<svg id="Layer_1" data-name="Layer 1" xmlns="http://www.w3.org/2000/svg" xmlns:xlink="http://www.w3.org/1999/xlink" viewBox="0 0 406 406"><defs><style>.cls-1{fill:none;}.cls-2{fill:#09b781;}.cls-3{fill:#002333;}.cls-4{clip-path:url(#clip-path);}.cls-5{fill:#0ab682;}.cls-6{clip-path:url(#clip-path-2);}</style><clipPath id="clip-path"><rect class="cls-1" x="1.78" y="614.93" width="1213.03" height="700.26"/></clipPath><clipPath id="clip-path-2"><rect class="cls-1" x="4.34" y="1473.48" width="1210.12" height="698.52"/></clipPath></defs><circle class="cls-2" cx="202.45" cy="203.32" r="200.1"/><path class="cls-3" d="M221,58.35a33.84,33.84,0,1,0,47,48.71,33.84,33.84,0,0,0-47-48.71Z"/><path class="cls-3" d="M181.23,349.46a33.85,33.85,0,1,0-47-48.71,33.85,33.85,0,0,0,47,48.71Z"/><path class="cls-3" d="M55.37,184.22a33.85,33.85,0,1,0,48.72-47,33.85,33.85,0,0,0-48.72,47Z"/><path class="cls-3" d="M292.66,247.18a70,70,0,1,0,70,70A70,70,0,0,0,292.66,247.18ZM322.4,360.32H305.5l-12.77-50.57L280,360.32h-17l-18.4-74.24h16.52L272.32,336l13.27-49.95h14.15L313,336l11.27-49.95H340.8Z"/><path class="cls-3" d="M243.61,381.63a182.63,182.63,0,0,1-41.83,4.89c-100.7,0-182.61-81.92-182.61-182.61S101.08,21.3,201.78,21.3s182.61,81.92,182.61,182.61a181.48,181.48,0,0,1-18.3,79.6,80.38,80.38,0,0,1,6.94,25,199.59,199.59,0,0,0,29.49-104.63c0-110.69-90-200.75-200.74-200.75S1,93.22,1,203.91,91.09,404.65,201.78,404.65a200,200,0,0,0,64.83-10.75A80.39,80.39,0,0,1,243.61,381.63Z"/><path class="cls-3" d="M257.58,245A29.57,29.57,0,0,1,265.81,226l63-63.44a30.43,30.43,0,0,0,8.8-23.14v-.25c-1.44-26.31-33.34-38.52-52-19.88l-21.14,21.13c-9.66,9.66-32,11.12-43.44-.34L160.38,77.49a30.49,30.49,0,0,0-21.9-9.26c-27.15,0-40.74,32.83-21.54,52l18.92,18.92c11.06,12,9.86,33.25,0,43.11L73.11,245a30.44,30.44,0,0,0-8.92,21.19v.68c-.32,27.33,32.71,41.24,52,21.92l20-20c10.57-10.57,32.55-10.69,43.62.38l33.68,33.74A80.94,80.94,0,0,1,257.58,245Zm-81.3-17.46a33.69,33.69,0,0,1,.86-47.87,33.85,33.85,0,0,1,47,48.72A33.69,33.69,0,0,1,176.28,227.58Z"/><path class="cls-3" d="M292.61,236.13a80.39,80.39,0,0,1,55.63,22.28,30.13,30.13,0,0,0-48.76-33.17,29.54,29.54,0,0,0-7.1,10.9Z"/><g class="cls-4"><path class="cls-5" d="M1552.24,1694.72c-124.29,118.3-322.59,113.78-441-10-116.6-121.92-112.56-319.54,8.94-437.17,123.95-120,319.38-116.58,440,7.74,120.15,123.84,116.61,321-7.91,439.48M2605.32,998.14a281.29,281.29,0,0,0,81.46-213.81l-.12-2.22c-13.35-243-308.37-355.75-480.74-183.67L1927.08,882c-89.3,89.19-295.64,102.75-401.66-3.14L858.24,204.65A282,282,0,0,0,655.73,119.1C404.67,119.21,279,422.37,456.54,599.67L737.78,870.81c102.29,111.2,91.16,307.08,0,398.12L62,1945.1a281.37,281.37,0,0,0-82.54,195.74l-.07,6.31c-3,252.39,302.47,380.86,481.18,202.38l280.8-281.74c97.72-97.59,301-98.67,403.36,3.58L1809,2738.72a282.12,282.12,0,0,0,207.65,82.33l.91,0c247-7.29,365.73-305.93,191-480.45l-268.37-270.81c-99.51-99.38-107-291.25-.68-397.44Z"/></g><g class="cls-6"><path class="cls-5" d="M1633.93,1272c-122.08,116.19-316.84,111.75-433.16-9.86-114.51-119.73-110.54-313.81,8.79-429.34,121.73-117.85,313.68-114.47,432.13,7.61,118,121.62,114.53,315.21-7.76,431.59M2668.22,587.92a276.27,276.27,0,0,0,80-210l-.12-2.18C2735,137.08,2445.24,26.39,2275.94,195.38L2002.08,473.82c-87.71,87.59-290.36,100.91-394.5-3.08L952.31-191.34a277.06,277.06,0,0,0-198.9-84c-246.58.12-370,297.84-195.63,472L834,462.87c100.46,109.22,89.54,301.58,0,391L170.3,1517.91a276.31,276.31,0,0,0-81.07,192.23l-.07,6.19c-2.93,247.86,297.07,374,472.59,198.75l275.8-276.68c96-95.85,295.6-96.91,396.16,3.51l652.44,655.38a277,277,0,0,0,203.94,80.86l.9,0c242.61-7.16,359.21-300.45,187.58-471.84l-263.59-266c-97.74-97.6-105.1-286-.66-390.31Z"/></g></svg>