<svg id="Layer_1" data-name="Layer 1" xmlns="http://www.w3.org/2000/svg" xmlns:xlink="http://www.w3.org/1999/xlink" viewBox="0 0 406 406"><defs><style>.cls-1{fill:none;}.cls-2{fill:#fff;}.cls-3{fill:#09b781;}.cls-4{clip-path:url(#clip-path);}.cls-5{fill:#0ab682;}.cls-6{clip-path:url(#clip-path-2);}.cls-7{clip-path:url(#clip-path-3);}</style><clipPath id="clip-path"><rect class="cls-1" x="-483.22" y="614.93" width="1213.03" height="700.26"/></clipPath><clipPath id="clip-path-2"><rect class="cls-1" x="-480.66" y="1473.48" width="1210.12" height="698.52"/></clipPath><clipPath id="clip-path-3"><rect class="cls-1" x="908.8" y="615.14" width="1214.15" height="699.4"/></clipPath></defs><circle class="cls-2" cx="204.44" cy="202.21" r="199.56"/><path class="cls-3" d="M222.88,57.64a33.76,33.76,0,1,0,46.88,48.58,33.76,33.76,0,0,0-46.88-48.58Z"/><path class="cls-3" d="M183.27,348a33.75,33.75,0,1,0-46.87-48.58A33.75,33.75,0,0,0,183.27,348Z"/><path class="cls-3" d="M57.76,183.16a33.75,33.75,0,1,0,48.58-46.87,33.75,33.75,0,0,0-48.58,46.87Z"/><path class="cls-3" d="M294.41,246a69.78,69.78,0,1,0,69.77,69.77A69.77,69.77,0,0,0,294.41,246Zm29.65,112.84H307.21l-12.74-50.43-12.74,50.43h-17l-18.35-74h16.48l11.24,49.82,13.23-49.82h14.11l13.24,49.82,11.24-49.82h16.48Z"/><path class="cls-3" d="M245.48,380a182.08,182.08,0,0,1-41.71,4.88c-100.42,0-182.12-81.7-182.12-182.12S103.35,20.68,203.77,20.68s182.11,81.7,182.11,182.12a181.14,181.14,0,0,1-18.24,79.39,80.21,80.21,0,0,1,6.92,25A199,199,0,0,0,404,202.8C404,92.41,314.16,2.6,203.77,2.6S3.56,92.41,3.56,202.8,93.38,403,203.77,403a199.16,199.16,0,0,0,64.65-10.72A80.74,80.74,0,0,1,245.48,380Z"/><path class="cls-3" d="M259.42,243.82a29.5,29.5,0,0,1,8.21-19l62.81-63.26a30.4,30.4,0,0,0,8.79-23.09l0-.24C337.77,112,306,99.8,287.37,118.38l-21.08,21.07c-9.63,9.63-31.88,11.1-43.32-.34L162.48,76.72a30.41,30.41,0,0,0-21.84-9.23c-27.07,0-40.62,32.74-21.48,51.89L138,138.25c11,12,9.83,33.16,0,43L75.45,243.82A30.39,30.39,0,0,0,66.55,265v.68c-.32,27.25,32.62,41.12,51.89,21.85l20-20c10.54-10.54,32.46-10.65,43.5.39l33.58,33.65A80.79,80.79,0,0,1,259.42,243.82Zm-81.09-17.41a33.6,33.6,0,0,1,.86-47.74,33.76,33.76,0,0,1,46.88,48.58A33.6,33.6,0,0,1,178.33,226.41Z"/><path class="cls-3" d="M293.65,234.15a80.1,80.1,0,0,1,55.47,22.22,30,30,0,0,0-48.62-33.08,29.42,29.42,0,0,0-7.08,10.86Z"/><g class="cls-4"><path class="cls-5" d="M1067.24,1694.72c-124.29,118.3-322.59,113.78-441-10-116.6-121.92-112.56-319.54,8.94-437.17,124-120,319.38-116.58,440,7.74,120.15,123.84,116.61,321-7.91,439.48M2120.32,998.14a281.29,281.29,0,0,0,81.46-213.81l-.12-2.22c-13.35-243-308.37-355.75-480.74-183.67L1442.08,882c-89.3,89.19-295.64,102.75-401.66-3.14L373.24,204.65A282,282,0,0,0,170.73,119.1C-80.33,119.21-206,422.37-28.46,599.67L252.78,870.81c102.29,111.2,91.16,307.08,0,398.12L-423,1945.1a281.37,281.37,0,0,0-82.54,195.74l-.07,6.31c-3,252.39,302.47,380.86,481.18,202.38l280.8-281.74c97.72-97.59,301-98.67,403.36,3.58L1324,2738.72a282.12,282.12,0,0,0,207.65,82.33l.91,0c247-7.29,365.73-305.93,191-480.45l-268.37-270.81c-99.51-99.38-107-291.25-.68-397.44Z"/></g><g class="cls-6"><path class="cls-5" d="M1148.93,1272c-122.08,116.19-316.84,111.75-433.16-9.86-114.51-119.73-110.54-313.81,8.79-429.34,121.73-117.85,313.68-114.47,432.13,7.61,118,121.62,114.53,315.21-7.76,431.59M2183.22,587.92a276.27,276.27,0,0,0,80-210l-.12-2.18C2250,137.08,1960.24,26.39,1790.94,195.38L1517.08,473.82c-87.71,87.59-290.36,100.91-394.5-3.08L467.31-191.34a277.06,277.06,0,0,0-198.9-84c-246.58.12-370,297.84-195.63,472L349,462.87c100.46,109.22,89.54,301.58,0,391l-663.7,664.06a276.31,276.31,0,0,0-81.07,192.23l-.07,6.19c-2.93,247.86,297.07,374,472.59,198.75l275.8-276.68c96-95.85,295.6-96.91,396.16,3.51l652.44,655.38a277,277,0,0,0,203.94,80.86l.9,0c242.61-7.16,359.21-300.45,187.58-471.84l-263.59-266c-97.74-97.6-105.1-286-.66-390.31Z"/></g><g class="cls-7"><path class="cls-5" d="M1678,462.37c-115,109.21-298.43,105-408-9.27-107.86-112.55-104.12-295,8.27-403.57,114.67-110.79,295.46-107.61,407,7.14C1796.44,171,1793.16,353,1678,462.37m974.22-643A259.38,259.38,0,0,0,2727.54-378l-.11-2c-12.35-224.35-285.28-328.4-444.74-169.55l-258,261.73c-82.62,82.33-273.5,94.85-371.59-2.9L1035.93-913.16a261.23,261.23,0,0,0-187.34-79c-232.26.11-348.51,280-184.27,443.64L924.5-298.2c94.62,102.65,84.33,283.47,0,367.51L299.34,693.51A259.52,259.52,0,0,0,223,874.2l-.06,5.82c-2.76,233,279.81,351.59,445.14,186.83L927.84,806.77c90.4-90.09,278.44-91.09,373.15,3.3l614.55,616.06a261.23,261.23,0,0,0,192.1,76l.84,0c228.52-6.73,338.34-282.42,176.68-443.52l-248.27-250c-92.06-91.74-99-268.86-.63-366.89Z"/></g></svg>