<svg id="Layer_1" data-name="Layer 1" xmlns="http://www.w3.org/2000/svg" xmlns:xlink="http://www.w3.org/1999/xlink" viewBox="0 0 406 406"><defs><style>.cls-1{fill:none;}.cls-2{fill:#fff;}.cls-3{clip-path:url(#clip-path);}.cls-4{fill:#0ab682;}.cls-5{clip-path:url(#clip-path-2);}.cls-6{clip-path:url(#clip-path-3);}</style><clipPath id="clip-path"><rect class="cls-1" x="-1467.87" y="614.93" width="1213.03" height="700.26"/></clipPath><clipPath id="clip-path-2"><rect class="cls-1" x="-1465.32" y="1473.48" width="1210.12" height="698.52"/></clipPath><clipPath id="clip-path-3"><rect class="cls-1" x="-75.85" y="615.14" width="1214.15" height="699.4"/></clipPath></defs><circle class="cls-2" cx="204.44" cy="202.21" r="199.56"/><path d="M222.88,57.64a33.76,33.76,0,1,0,46.88,48.58,33.76,33.76,0,0,0-46.88-48.58Z"/><path d="M183.27,348a33.75,33.75,0,1,0-46.87-48.58A33.75,33.75,0,0,0,183.27,348Z"/><path d="M57.76,183.16a33.75,33.75,0,1,0,48.58-46.87,33.75,33.75,0,0,0-48.58,46.87Z"/><path d="M294.41,246a69.78,69.78,0,1,0,69.77,69.77A69.77,69.77,0,0,0,294.41,246Zm29.65,112.84H307.21l-12.74-50.43-12.74,50.43h-17l-18.35-74h16.48l11.24,49.82,13.23-49.82h14.11l13.24,49.82,11.24-49.82h16.48Z"/><path d="M245.48,380a182.08,182.08,0,0,1-41.71,4.88c-100.42,0-182.12-81.7-182.12-182.12S103.35,20.68,203.77,20.68s182.11,81.7,182.11,182.12a181.14,181.14,0,0,1-18.24,79.39,80.21,80.21,0,0,1,6.92,25A199,199,0,0,0,404,202.8C404,92.41,314.16,2.6,203.77,2.6S3.56,92.41,3.56,202.8,93.38,403,203.77,403a199.16,199.16,0,0,0,64.65-10.72A80.74,80.74,0,0,1,245.48,380Z"/><path d="M259.42,243.82a29.5,29.5,0,0,1,8.21-19l62.81-63.26a30.4,30.4,0,0,0,8.79-23.09l0-.24C337.77,112,306,99.8,287.37,118.38l-21.08,21.07c-9.63,9.63-31.88,11.1-43.32-.34L162.48,76.72a30.41,30.41,0,0,0-21.84-9.23c-27.07,0-40.62,32.74-21.48,51.89L138,138.25c11,12,9.83,33.16,0,43L75.45,243.82A30.39,30.39,0,0,0,66.55,265v.68c-.32,27.25,32.62,41.12,51.89,21.85l20-20c10.54-10.54,32.46-10.65,43.5.39l33.58,33.65A80.79,80.79,0,0,1,259.42,243.82Zm-81.09-17.41a33.6,33.6,0,0,1,.86-47.74,33.76,33.76,0,0,1,46.88,48.58A33.6,33.6,0,0,1,178.33,226.41Z"/><path d="M293.65,234.15a80.1,80.1,0,0,1,55.47,22.22,30,30,0,0,0-48.62-33.08,29.42,29.42,0,0,0-7.08,10.86Z"/><g class="cls-3"><path class="cls-4" d="M82.59,1694.72c-124.29,118.3-322.59,113.78-441-10C-475,1562.75-471,1365.13-349.49,1247.5c123.94-120,319.37-116.58,440,7.74,120.16,123.84,116.61,321-7.9,439.48M1135.67,998.14a281.33,281.33,0,0,0,81.46-213.81l-.13-2.22c-13.35-243-308.37-355.75-480.74-183.67L457.43,882c-89.3,89.19-295.64,102.75-401.67-3.14L-611.41,204.65A282.06,282.06,0,0,0-813.92,119.1c-251.07.11-376.72,303.27-199.19,480.57l281.24,271.14c102.28,111.2,91.16,307.08,0,398.12l-675.76,676.17a281.33,281.33,0,0,0-82.54,195.74l-.08,6.31c-3,252.39,302.47,380.86,481.18,202.38l280.81-281.74c97.72-97.59,301-98.67,403.36,3.58l664.29,667.35A282.11,282.11,0,0,0,547,2821.05l.91,0c247-7.29,365.73-305.93,191-480.45L470.56,2069.76c-99.51-99.38-107-291.25-.68-397.44Z"/></g><g class="cls-5"><path class="cls-4" d="M164.28,1272c-122.08,116.19-316.84,111.75-433.16-9.86-114.51-119.73-110.54-313.81,8.78-429.34C-138.36,715,53.58,718.33,172,840.41c118,121.62,114.53,315.21-7.76,431.59M1198.56,587.92a276.23,276.23,0,0,0,80-210l-.12-2.18C1265.34,137.08,975.58,26.39,806.29,195.38L532.42,473.82c-87.7,87.59-290.36,100.91-394.49-3.08L-517.35-191.34a277.05,277.05,0,0,0-198.89-84c-246.59.12-370,297.84-195.63,472l276.22,266.28c100.45,109.22,89.53,301.58,0,391l-663.7,664.06a276.26,276.26,0,0,0-81.07,192.23l-.08,6.19c-2.92,247.86,297.07,374,472.6,198.75l275.79-276.68c96-95.85,295.61-96.91,396.17,3.51L416.5,2297.29a277,277,0,0,0,203.94,80.86l.89,0C864,2371,980.54,2077.67,808.91,1906.28l-263.58-266c-97.74-97.6-105.1-286-.66-390.31Z"/></g><g class="cls-6"><path class="cls-4" d="M693.31,462.37c-115,109.21-298.43,105-408-9.27-107.86-112.55-104.12-295,8.28-403.57,114.67-110.79,295.46-107.61,407,7.14C811.78,171,808.5,353,693.31,462.37m974.22-643A259.41,259.41,0,0,0,1742.89-378l-.11-2C1730.42-604.44,1457.5-708.49,1298-549.64l-258,261.73c-82.61,82.33-273.5,94.85-371.59-2.9L51.28-913.16a261.25,261.25,0,0,0-187.34-79c-232.27.11-348.51,280-184.28,443.64L-60.16-298.2c94.63,102.65,84.34,283.47,0,367.51l-625.15,624.2A259.43,259.43,0,0,0-761.67,874.2l-.07,5.82c-2.76,233,279.82,351.59,445.15,186.83L-56.82,806.77c90.41-90.09,278.44-91.09,373.16,3.3l614.54,616.06a261.25,261.25,0,0,0,192.1,76l.84,0c228.53-6.73,338.35-282.42,176.69-443.52l-248.28-250c-92.06-91.74-99-268.86-.62-366.89Z"/></g></svg>